<mxfile host="app.diagrams.net" modified="2021-05-28T10:17:12.495Z" agent="5.0 (Windows NT 10.0; Win64; x64) AppleWebKit/537.36 (KHTML, like Gecko) Chrome/90.0.4430.212 Safari/537.36 Edg/90.0.818.66" etag="XpvFPbSWFKM8SaUYEBCn" version="14.7.2" type="github">
  <diagram id="JaHIngfFHP9z-0MzOSH1" name="Page-1">
    <mxGraphModel dx="1018" dy="1250" grid="1" gridSize="10" guides="1" tooltips="1" connect="1" arrows="1" fold="1" page="1" pageScale="1" pageWidth="1654" pageHeight="2336" math="0" shadow="0">
      <root>
        <mxCell id="0" />
        <mxCell id="1" parent="0" />
        <mxCell id="HIaw6c_OQr-V_QlcpzKh-109" value="" style="group" vertex="1" connectable="0" parent="1">
          <mxGeometry width="280" height="320" as="geometry" />
        </mxCell>
        <mxCell id="HIaw6c_OQr-V_QlcpzKh-106" value="&lt;font style=&quot;font-size: 18px&quot;&gt;&lt;b&gt;优先关系表&lt;/b&gt;&lt;/font&gt;" style="rounded=0;whiteSpace=wrap;html=1;fillColor=#d5e8d4;strokeColor=#82b366;" vertex="1" parent="HIaw6c_OQr-V_QlcpzKh-109">
          <mxGeometry width="280" height="40" as="geometry" />
        </mxCell>
        <mxCell id="HIaw6c_OQr-V_QlcpzKh-15" value="" style="rounded=0;whiteSpace=wrap;html=1;fillColor=#e1d5e7;strokeColor=#9673a6;" vertex="1" parent="HIaw6c_OQr-V_QlcpzKh-109">
          <mxGeometry y="40" width="40" height="40" as="geometry" />
        </mxCell>
        <mxCell id="HIaw6c_OQr-V_QlcpzKh-16" value="&lt;font style=&quot;font-size: 18px&quot;&gt;&lt;b&gt;*&lt;/b&gt;&lt;/font&gt;" style="rounded=0;whiteSpace=wrap;html=1;fillColor=#e1d5e7;strokeColor=#9673a6;" vertex="1" parent="HIaw6c_OQr-V_QlcpzKh-109">
          <mxGeometry y="80" width="40" height="40" as="geometry" />
        </mxCell>
        <mxCell id="HIaw6c_OQr-V_QlcpzKh-17" value="&lt;font style=&quot;font-size: 18px&quot;&gt;&lt;b&gt;*&lt;/b&gt;&lt;/font&gt;" style="rounded=0;whiteSpace=wrap;html=1;fillColor=#e1d5e7;strokeColor=#9673a6;" vertex="1" parent="HIaw6c_OQr-V_QlcpzKh-109">
          <mxGeometry x="40" y="40" width="40" height="40" as="geometry" />
        </mxCell>
        <mxCell id="HIaw6c_OQr-V_QlcpzKh-18" value="&lt;font style=&quot;font-size: 18px&quot;&gt;&lt;b&gt;&amp;gt;&lt;/b&gt;&lt;/font&gt;" style="rounded=0;whiteSpace=wrap;html=1;fillColor=#fff2cc;strokeColor=#d6b656;" vertex="1" parent="HIaw6c_OQr-V_QlcpzKh-109">
          <mxGeometry x="40" y="80" width="40" height="40" as="geometry" />
        </mxCell>
        <mxCell id="HIaw6c_OQr-V_QlcpzKh-19" value="&lt;font style=&quot;font-size: 18px&quot;&gt;&lt;b&gt;&amp;amp;&lt;/b&gt;&lt;/font&gt;" style="rounded=0;whiteSpace=wrap;html=1;fillColor=#e1d5e7;strokeColor=#9673a6;" vertex="1" parent="HIaw6c_OQr-V_QlcpzKh-109">
          <mxGeometry x="80" y="40" width="40" height="40" as="geometry" />
        </mxCell>
        <mxCell id="HIaw6c_OQr-V_QlcpzKh-20" value="&lt;b style=&quot;font-size: 18px&quot;&gt;&amp;gt;&lt;/b&gt;" style="rounded=0;whiteSpace=wrap;html=1;fillColor=#fff2cc;strokeColor=#d6b656;" vertex="1" parent="HIaw6c_OQr-V_QlcpzKh-109">
          <mxGeometry x="80" y="80" width="40" height="40" as="geometry" />
        </mxCell>
        <mxCell id="HIaw6c_OQr-V_QlcpzKh-21" value="&lt;font style=&quot;font-size: 18px&quot;&gt;&lt;b&gt;|&lt;/b&gt;&lt;/font&gt;" style="rounded=0;whiteSpace=wrap;html=1;fillColor=#e1d5e7;strokeColor=#9673a6;" vertex="1" parent="HIaw6c_OQr-V_QlcpzKh-109">
          <mxGeometry x="120" y="40" width="40" height="40" as="geometry" />
        </mxCell>
        <mxCell id="HIaw6c_OQr-V_QlcpzKh-22" value="&lt;b style=&quot;font-size: 18px&quot;&gt;&amp;gt;&lt;/b&gt;" style="rounded=0;whiteSpace=wrap;html=1;fillColor=#fff2cc;strokeColor=#d6b656;" vertex="1" parent="HIaw6c_OQr-V_QlcpzKh-109">
          <mxGeometry x="120" y="80" width="40" height="40" as="geometry" />
        </mxCell>
        <mxCell id="HIaw6c_OQr-V_QlcpzKh-23" value="&lt;b style=&quot;font-size: 18px&quot;&gt;&amp;amp;&lt;/b&gt;" style="rounded=0;whiteSpace=wrap;html=1;fillColor=#e1d5e7;strokeColor=#9673a6;" vertex="1" parent="HIaw6c_OQr-V_QlcpzKh-109">
          <mxGeometry y="120" width="40" height="40" as="geometry" />
        </mxCell>
        <mxCell id="HIaw6c_OQr-V_QlcpzKh-24" value="&lt;b style=&quot;font-size: 18px&quot;&gt;|&lt;/b&gt;" style="rounded=0;whiteSpace=wrap;html=1;fillColor=#e1d5e7;strokeColor=#9673a6;" vertex="1" parent="HIaw6c_OQr-V_QlcpzKh-109">
          <mxGeometry y="160" width="40" height="40" as="geometry" />
        </mxCell>
        <mxCell id="HIaw6c_OQr-V_QlcpzKh-25" value="&lt;b style=&quot;font-size: 18px&quot;&gt;&amp;lt;&lt;/b&gt;" style="rounded=0;whiteSpace=wrap;html=1;fillColor=#fff2cc;strokeColor=#d6b656;" vertex="1" parent="HIaw6c_OQr-V_QlcpzKh-109">
          <mxGeometry x="40" y="120" width="40" height="40" as="geometry" />
        </mxCell>
        <mxCell id="HIaw6c_OQr-V_QlcpzKh-26" value="&lt;b style=&quot;font-size: 18px&quot;&gt;&amp;lt;&lt;/b&gt;" style="rounded=0;whiteSpace=wrap;html=1;fillColor=#fff2cc;strokeColor=#d6b656;" vertex="1" parent="HIaw6c_OQr-V_QlcpzKh-109">
          <mxGeometry x="40" y="160" width="40" height="40" as="geometry" />
        </mxCell>
        <mxCell id="HIaw6c_OQr-V_QlcpzKh-27" value="&lt;b style=&quot;font-size: 18px&quot;&gt;&amp;gt;&lt;/b&gt;" style="rounded=0;whiteSpace=wrap;html=1;fillColor=#fff2cc;strokeColor=#d6b656;" vertex="1" parent="HIaw6c_OQr-V_QlcpzKh-109">
          <mxGeometry x="80" y="120" width="40" height="40" as="geometry" />
        </mxCell>
        <mxCell id="HIaw6c_OQr-V_QlcpzKh-28" value="&lt;b style=&quot;font-size: 18px&quot;&gt;&amp;lt;&lt;/b&gt;" style="rounded=0;whiteSpace=wrap;html=1;fillColor=#fff2cc;strokeColor=#d6b656;" vertex="1" parent="HIaw6c_OQr-V_QlcpzKh-109">
          <mxGeometry x="80" y="160" width="40" height="40" as="geometry" />
        </mxCell>
        <mxCell id="HIaw6c_OQr-V_QlcpzKh-29" value="&lt;b style=&quot;font-size: 18px&quot;&gt;&amp;gt;&lt;/b&gt;" style="rounded=0;whiteSpace=wrap;html=1;fillColor=#fff2cc;strokeColor=#d6b656;" vertex="1" parent="HIaw6c_OQr-V_QlcpzKh-109">
          <mxGeometry x="120" y="120" width="40" height="40" as="geometry" />
        </mxCell>
        <mxCell id="HIaw6c_OQr-V_QlcpzKh-30" value="&lt;b style=&quot;font-size: 18px&quot;&gt;&amp;gt;&lt;/b&gt;" style="rounded=0;whiteSpace=wrap;html=1;fillColor=#fff2cc;strokeColor=#d6b656;" vertex="1" parent="HIaw6c_OQr-V_QlcpzKh-109">
          <mxGeometry x="120" y="160" width="40" height="40" as="geometry" />
        </mxCell>
        <mxCell id="HIaw6c_OQr-V_QlcpzKh-31" value="&lt;font style=&quot;font-size: 18px&quot;&gt;&lt;b&gt;(&lt;/b&gt;&lt;/font&gt;" style="rounded=0;whiteSpace=wrap;html=1;fillColor=#e1d5e7;strokeColor=#9673a6;" vertex="1" parent="HIaw6c_OQr-V_QlcpzKh-109">
          <mxGeometry x="160" y="40" width="40" height="40" as="geometry" />
        </mxCell>
        <mxCell id="HIaw6c_OQr-V_QlcpzKh-32" value="&lt;b style=&quot;font-size: 18px&quot;&gt;&amp;lt;&lt;/b&gt;" style="rounded=0;whiteSpace=wrap;html=1;fillColor=#fff2cc;strokeColor=#d6b656;" vertex="1" parent="HIaw6c_OQr-V_QlcpzKh-109">
          <mxGeometry x="160" y="80" width="40" height="40" as="geometry" />
        </mxCell>
        <mxCell id="HIaw6c_OQr-V_QlcpzKh-33" value="&lt;font style=&quot;font-size: 18px&quot;&gt;&lt;b&gt;)&lt;/b&gt;&lt;/font&gt;" style="rounded=0;whiteSpace=wrap;html=1;fillColor=#e1d5e7;strokeColor=#9673a6;" vertex="1" parent="HIaw6c_OQr-V_QlcpzKh-109">
          <mxGeometry x="200" y="40" width="40" height="40" as="geometry" />
        </mxCell>
        <mxCell id="HIaw6c_OQr-V_QlcpzKh-34" value="&lt;b style=&quot;font-size: 18px&quot;&gt;&amp;gt;&lt;/b&gt;" style="rounded=0;whiteSpace=wrap;html=1;fillColor=#fff2cc;strokeColor=#d6b656;" vertex="1" parent="HIaw6c_OQr-V_QlcpzKh-109">
          <mxGeometry x="200" y="80" width="40" height="40" as="geometry" />
        </mxCell>
        <mxCell id="HIaw6c_OQr-V_QlcpzKh-35" value="&lt;font style=&quot;font-size: 18px&quot;&gt;&lt;b&gt;#&lt;/b&gt;&lt;/font&gt;" style="rounded=0;whiteSpace=wrap;html=1;fillColor=#e1d5e7;strokeColor=#9673a6;" vertex="1" parent="HIaw6c_OQr-V_QlcpzKh-109">
          <mxGeometry x="240" y="40" width="40" height="40" as="geometry" />
        </mxCell>
        <mxCell id="HIaw6c_OQr-V_QlcpzKh-36" value="&lt;b style=&quot;font-size: 18px&quot;&gt;&amp;gt;&lt;/b&gt;" style="rounded=0;whiteSpace=wrap;html=1;fillColor=#fff2cc;strokeColor=#d6b656;" vertex="1" parent="HIaw6c_OQr-V_QlcpzKh-109">
          <mxGeometry x="240" y="80" width="40" height="40" as="geometry" />
        </mxCell>
        <mxCell id="HIaw6c_OQr-V_QlcpzKh-39" value="&lt;b style=&quot;font-size: 18px&quot;&gt;&amp;lt;&lt;/b&gt;" style="rounded=0;whiteSpace=wrap;html=1;fillColor=#fff2cc;strokeColor=#d6b656;" vertex="1" parent="HIaw6c_OQr-V_QlcpzKh-109">
          <mxGeometry x="160" y="120" width="40" height="40" as="geometry" />
        </mxCell>
        <mxCell id="HIaw6c_OQr-V_QlcpzKh-40" value="&lt;b style=&quot;font-size: 18px&quot;&gt;&amp;lt;&lt;/b&gt;" style="rounded=0;whiteSpace=wrap;html=1;fillColor=#fff2cc;strokeColor=#d6b656;" vertex="1" parent="HIaw6c_OQr-V_QlcpzKh-109">
          <mxGeometry x="160" y="160" width="40" height="40" as="geometry" />
        </mxCell>
        <mxCell id="HIaw6c_OQr-V_QlcpzKh-41" value="&lt;b style=&quot;font-size: 18px&quot;&gt;&amp;gt;&lt;/b&gt;" style="rounded=0;whiteSpace=wrap;html=1;fillColor=#fff2cc;strokeColor=#d6b656;" vertex="1" parent="HIaw6c_OQr-V_QlcpzKh-109">
          <mxGeometry x="200" y="120" width="40" height="40" as="geometry" />
        </mxCell>
        <mxCell id="HIaw6c_OQr-V_QlcpzKh-42" value="&lt;b style=&quot;font-size: 18px&quot;&gt;&amp;gt;&lt;/b&gt;" style="rounded=0;whiteSpace=wrap;html=1;fillColor=#fff2cc;strokeColor=#d6b656;" vertex="1" parent="HIaw6c_OQr-V_QlcpzKh-109">
          <mxGeometry x="200" y="160" width="40" height="40" as="geometry" />
        </mxCell>
        <mxCell id="HIaw6c_OQr-V_QlcpzKh-43" value="&lt;b style=&quot;font-size: 18px&quot;&gt;&amp;gt;&lt;/b&gt;" style="rounded=0;whiteSpace=wrap;html=1;fillColor=#fff2cc;strokeColor=#d6b656;" vertex="1" parent="HIaw6c_OQr-V_QlcpzKh-109">
          <mxGeometry x="240" y="120" width="40" height="40" as="geometry" />
        </mxCell>
        <mxCell id="HIaw6c_OQr-V_QlcpzKh-44" value="&lt;b style=&quot;font-size: 18px&quot;&gt;&amp;gt;&lt;/b&gt;" style="rounded=0;whiteSpace=wrap;html=1;fillColor=#fff2cc;strokeColor=#d6b656;" vertex="1" parent="HIaw6c_OQr-V_QlcpzKh-109">
          <mxGeometry x="240" y="160" width="40" height="40" as="geometry" />
        </mxCell>
        <mxCell id="HIaw6c_OQr-V_QlcpzKh-47" value="&lt;b style=&quot;font-size: 18px&quot;&gt;(&lt;/b&gt;" style="rounded=0;whiteSpace=wrap;html=1;fillColor=#e1d5e7;strokeColor=#9673a6;" vertex="1" parent="HIaw6c_OQr-V_QlcpzKh-109">
          <mxGeometry y="200" width="40" height="40" as="geometry" />
        </mxCell>
        <mxCell id="HIaw6c_OQr-V_QlcpzKh-48" value="&lt;b style=&quot;font-size: 18px&quot;&gt;)&lt;/b&gt;" style="rounded=0;whiteSpace=wrap;html=1;fillColor=#e1d5e7;strokeColor=#9673a6;" vertex="1" parent="HIaw6c_OQr-V_QlcpzKh-109">
          <mxGeometry y="240" width="40" height="40" as="geometry" />
        </mxCell>
        <mxCell id="HIaw6c_OQr-V_QlcpzKh-49" value="&lt;b style=&quot;font-size: 18px&quot;&gt;&amp;lt;&lt;/b&gt;" style="rounded=0;whiteSpace=wrap;html=1;fillColor=#fff2cc;strokeColor=#d6b656;" vertex="1" parent="HIaw6c_OQr-V_QlcpzKh-109">
          <mxGeometry x="40" y="200" width="40" height="40" as="geometry" />
        </mxCell>
        <mxCell id="HIaw6c_OQr-V_QlcpzKh-50" value="&lt;b style=&quot;font-size: 18px&quot;&gt;&amp;gt;&lt;/b&gt;" style="rounded=0;whiteSpace=wrap;html=1;fillColor=#fff2cc;strokeColor=#d6b656;" vertex="1" parent="HIaw6c_OQr-V_QlcpzKh-109">
          <mxGeometry x="40" y="240" width="40" height="40" as="geometry" />
        </mxCell>
        <mxCell id="HIaw6c_OQr-V_QlcpzKh-51" value="&lt;b style=&quot;font-size: 18px&quot;&gt;&amp;lt;&lt;/b&gt;" style="rounded=0;whiteSpace=wrap;html=1;fillColor=#fff2cc;strokeColor=#d6b656;" vertex="1" parent="HIaw6c_OQr-V_QlcpzKh-109">
          <mxGeometry x="80" y="200" width="40" height="40" as="geometry" />
        </mxCell>
        <mxCell id="HIaw6c_OQr-V_QlcpzKh-52" value="&lt;b style=&quot;font-size: 18px&quot;&gt;&amp;gt;&lt;/b&gt;" style="rounded=0;whiteSpace=wrap;html=1;fillColor=#fff2cc;strokeColor=#d6b656;" vertex="1" parent="HIaw6c_OQr-V_QlcpzKh-109">
          <mxGeometry x="80" y="240" width="40" height="40" as="geometry" />
        </mxCell>
        <mxCell id="HIaw6c_OQr-V_QlcpzKh-53" value="&lt;b style=&quot;font-size: 18px&quot;&gt;&amp;lt;&lt;/b&gt;" style="rounded=0;whiteSpace=wrap;html=1;fillColor=#fff2cc;strokeColor=#d6b656;" vertex="1" parent="HIaw6c_OQr-V_QlcpzKh-109">
          <mxGeometry x="120" y="200" width="40" height="40" as="geometry" />
        </mxCell>
        <mxCell id="HIaw6c_OQr-V_QlcpzKh-54" value="&lt;b style=&quot;font-size: 18px&quot;&gt;&amp;gt;&lt;/b&gt;" style="rounded=0;whiteSpace=wrap;html=1;fillColor=#fff2cc;strokeColor=#d6b656;" vertex="1" parent="HIaw6c_OQr-V_QlcpzKh-109">
          <mxGeometry x="120" y="240" width="40" height="40" as="geometry" />
        </mxCell>
        <mxCell id="HIaw6c_OQr-V_QlcpzKh-55" value="&lt;b style=&quot;font-size: 18px&quot;&gt;#&lt;/b&gt;" style="rounded=0;whiteSpace=wrap;html=1;fillColor=#e1d5e7;strokeColor=#9673a6;" vertex="1" parent="HIaw6c_OQr-V_QlcpzKh-109">
          <mxGeometry y="280" width="40" height="40" as="geometry" />
        </mxCell>
        <mxCell id="HIaw6c_OQr-V_QlcpzKh-57" value="&lt;span style=&quot;font-size: 18px&quot;&gt;&lt;b&gt;&amp;lt;&lt;/b&gt;&lt;/span&gt;" style="rounded=0;whiteSpace=wrap;html=1;fillColor=#fff2cc;strokeColor=#d6b656;" vertex="1" parent="HIaw6c_OQr-V_QlcpzKh-109">
          <mxGeometry x="40" y="280" width="40" height="40" as="geometry" />
        </mxCell>
        <mxCell id="HIaw6c_OQr-V_QlcpzKh-59" value="&lt;b style=&quot;font-size: 18px&quot;&gt;&amp;lt;&lt;/b&gt;" style="rounded=0;whiteSpace=wrap;html=1;fillColor=#fff2cc;strokeColor=#d6b656;" vertex="1" parent="HIaw6c_OQr-V_QlcpzKh-109">
          <mxGeometry x="80" y="280" width="40" height="40" as="geometry" />
        </mxCell>
        <mxCell id="HIaw6c_OQr-V_QlcpzKh-61" value="&lt;b style=&quot;font-size: 18px&quot;&gt;&amp;lt;&lt;/b&gt;" style="rounded=0;whiteSpace=wrap;html=1;fillColor=#fff2cc;strokeColor=#d6b656;" vertex="1" parent="HIaw6c_OQr-V_QlcpzKh-109">
          <mxGeometry x="120" y="280" width="40" height="40" as="geometry" />
        </mxCell>
        <mxCell id="HIaw6c_OQr-V_QlcpzKh-63" value="&lt;b style=&quot;font-size: 18px&quot;&gt;&amp;lt;&lt;/b&gt;" style="rounded=0;whiteSpace=wrap;html=1;fillColor=#fff2cc;strokeColor=#d6b656;" vertex="1" parent="HIaw6c_OQr-V_QlcpzKh-109">
          <mxGeometry x="160" y="200" width="40" height="40" as="geometry" />
        </mxCell>
        <mxCell id="HIaw6c_OQr-V_QlcpzKh-64" value="&lt;b style=&quot;font-size: 18px&quot;&gt;&amp;gt;&lt;/b&gt;" style="rounded=0;whiteSpace=wrap;html=1;fillColor=#fff2cc;strokeColor=#d6b656;" vertex="1" parent="HIaw6c_OQr-V_QlcpzKh-109">
          <mxGeometry x="160" y="240" width="40" height="40" as="geometry" />
        </mxCell>
        <mxCell id="HIaw6c_OQr-V_QlcpzKh-65" value="&lt;span style=&quot;font-size: 18px&quot;&gt;&lt;b&gt;=&lt;/b&gt;&lt;/span&gt;" style="rounded=0;whiteSpace=wrap;html=1;fillColor=#fff2cc;strokeColor=#d6b656;" vertex="1" parent="HIaw6c_OQr-V_QlcpzKh-109">
          <mxGeometry x="200" y="200" width="40" height="40" as="geometry" />
        </mxCell>
        <mxCell id="HIaw6c_OQr-V_QlcpzKh-66" value="&lt;b style=&quot;font-size: 18px&quot;&gt;&amp;gt;&lt;/b&gt;" style="rounded=0;whiteSpace=wrap;html=1;fillColor=#fff2cc;strokeColor=#d6b656;" vertex="1" parent="HIaw6c_OQr-V_QlcpzKh-109">
          <mxGeometry x="200" y="240" width="40" height="40" as="geometry" />
        </mxCell>
        <mxCell id="HIaw6c_OQr-V_QlcpzKh-67" value="&lt;span style=&quot;font-size: 18px&quot;&gt;&lt;b&gt;x&lt;/b&gt;&lt;/span&gt;" style="rounded=0;whiteSpace=wrap;html=1;fillColor=#fff2cc;strokeColor=#d6b656;" vertex="1" parent="HIaw6c_OQr-V_QlcpzKh-109">
          <mxGeometry x="240" y="200" width="40" height="40" as="geometry" />
        </mxCell>
        <mxCell id="HIaw6c_OQr-V_QlcpzKh-68" value="&lt;b style=&quot;font-size: 18px&quot;&gt;&amp;gt;&lt;/b&gt;" style="rounded=0;whiteSpace=wrap;html=1;fillColor=#fff2cc;strokeColor=#d6b656;" vertex="1" parent="HIaw6c_OQr-V_QlcpzKh-109">
          <mxGeometry x="240" y="240" width="40" height="40" as="geometry" />
        </mxCell>
        <mxCell id="HIaw6c_OQr-V_QlcpzKh-71" value="&lt;b style=&quot;font-size: 18px&quot;&gt;&amp;lt;&lt;/b&gt;" style="rounded=0;whiteSpace=wrap;html=1;fillColor=#fff2cc;strokeColor=#d6b656;" vertex="1" parent="HIaw6c_OQr-V_QlcpzKh-109">
          <mxGeometry x="160" y="280" width="40" height="40" as="geometry" />
        </mxCell>
        <mxCell id="HIaw6c_OQr-V_QlcpzKh-73" value="&lt;b style=&quot;font-size: 18px&quot;&gt;&amp;lt;&lt;/b&gt;" style="rounded=0;whiteSpace=wrap;html=1;fillColor=#fff2cc;strokeColor=#d6b656;" vertex="1" parent="HIaw6c_OQr-V_QlcpzKh-109">
          <mxGeometry x="200" y="280" width="40" height="40" as="geometry" />
        </mxCell>
        <mxCell id="HIaw6c_OQr-V_QlcpzKh-75" value="&lt;b style=&quot;font-size: 18px&quot;&gt;&amp;lt;&lt;/b&gt;" style="rounded=0;whiteSpace=wrap;html=1;fillColor=#fff2cc;strokeColor=#d6b656;" vertex="1" parent="HIaw6c_OQr-V_QlcpzKh-109">
          <mxGeometry x="240" y="280" width="40" height="40" as="geometry" />
        </mxCell>
        <mxCell id="HIaw6c_OQr-V_QlcpzKh-241" value="" style="group" vertex="1" connectable="0" parent="1">
          <mxGeometry x="2120" y="40" width="320" height="680" as="geometry" />
        </mxCell>
        <mxCell id="HIaw6c_OQr-V_QlcpzKh-126" value="&lt;font size=&quot;3&quot;&gt;&lt;b&gt;regex[i] != &#39;#&#39; ||&lt;br&gt;&lt;/b&gt;&lt;/font&gt;&lt;b style=&quot;font-size: 18px&quot;&gt;operatorStack.top&lt;br&gt;&lt;/b&gt;&lt;font size=&quot;3&quot;&gt;&lt;b&gt;!= &#39;#&#39; ?&lt;br&gt;&lt;/b&gt;&lt;/font&gt;" style="strokeWidth=2;html=1;shape=mxgraph.flowchart.decision;whiteSpace=wrap;" vertex="1" parent="HIaw6c_OQr-V_QlcpzKh-241">
          <mxGeometry y="80" width="200" height="120" as="geometry" />
        </mxCell>
        <mxCell id="HIaw6c_OQr-V_QlcpzKh-128" value="&lt;b style=&quot;font-size: medium&quot;&gt;regex[i]为操作数？&lt;/b&gt;&lt;font size=&quot;3&quot;&gt;&lt;b&gt;&lt;br&gt;&lt;/b&gt;&lt;/font&gt;" style="strokeWidth=2;html=1;shape=mxgraph.flowchart.decision;whiteSpace=wrap;" vertex="1" parent="HIaw6c_OQr-V_QlcpzKh-241">
          <mxGeometry x="20" y="240" width="160" height="120" as="geometry" />
        </mxCell>
        <mxCell id="HIaw6c_OQr-V_QlcpzKh-160" style="edgeStyle=orthogonalEdgeStyle;rounded=0;orthogonalLoop=1;jettySize=auto;html=1;exitX=0.5;exitY=1;exitDx=0;exitDy=0;exitPerimeter=0;entryX=0.5;entryY=0;entryDx=0;entryDy=0;entryPerimeter=0;" edge="1" parent="HIaw6c_OQr-V_QlcpzKh-241" source="HIaw6c_OQr-V_QlcpzKh-126" target="HIaw6c_OQr-V_QlcpzKh-128">
          <mxGeometry relative="1" as="geometry" />
        </mxCell>
        <mxCell id="HIaw6c_OQr-V_QlcpzKh-130" value="&lt;b style=&quot;font-size: 18px&quot;&gt;operandStack&lt;br&gt;.push(&lt;/b&gt;&lt;b style=&quot;font-size: medium&quot;&gt;regex[i]&lt;/b&gt;&lt;b style=&quot;font-size: 18px&quot;&gt;&lt;br&gt;)&lt;/b&gt;" style="rounded=0;whiteSpace=wrap;html=1;" vertex="1" parent="HIaw6c_OQr-V_QlcpzKh-241">
          <mxGeometry x="20" y="400" width="160" height="80" as="geometry" />
        </mxCell>
        <mxCell id="HIaw6c_OQr-V_QlcpzKh-161" style="edgeStyle=orthogonalEdgeStyle;rounded=0;orthogonalLoop=1;jettySize=auto;html=1;exitX=0.5;exitY=1;exitDx=0;exitDy=0;exitPerimeter=0;entryX=0.5;entryY=0;entryDx=0;entryDy=0;" edge="1" parent="HIaw6c_OQr-V_QlcpzKh-241" source="HIaw6c_OQr-V_QlcpzKh-128" target="HIaw6c_OQr-V_QlcpzKh-130">
          <mxGeometry relative="1" as="geometry" />
        </mxCell>
        <mxCell id="HIaw6c_OQr-V_QlcpzKh-131" value="&lt;span style=&quot;font-size: 18px&quot;&gt;&lt;b&gt;i++&lt;/b&gt;&lt;/span&gt;" style="rounded=0;whiteSpace=wrap;html=1;" vertex="1" parent="HIaw6c_OQr-V_QlcpzKh-241">
          <mxGeometry x="20" y="520" width="160" height="80" as="geometry" />
        </mxCell>
        <mxCell id="HIaw6c_OQr-V_QlcpzKh-162" style="edgeStyle=orthogonalEdgeStyle;rounded=0;orthogonalLoop=1;jettySize=auto;html=1;exitX=0.5;exitY=1;exitDx=0;exitDy=0;entryX=0.5;entryY=0;entryDx=0;entryDy=0;" edge="1" parent="HIaw6c_OQr-V_QlcpzKh-241" source="HIaw6c_OQr-V_QlcpzKh-130" target="HIaw6c_OQr-V_QlcpzKh-131">
          <mxGeometry relative="1" as="geometry" />
        </mxCell>
        <mxCell id="HIaw6c_OQr-V_QlcpzKh-159" style="edgeStyle=orthogonalEdgeStyle;rounded=0;orthogonalLoop=1;jettySize=auto;html=1;exitX=0.5;exitY=1;exitDx=0;exitDy=0;exitPerimeter=0;entryX=0.5;entryY=0;entryDx=0;entryDy=0;entryPerimeter=0;" edge="1" parent="HIaw6c_OQr-V_QlcpzKh-241" source="HIaw6c_OQr-V_QlcpzKh-158" target="HIaw6c_OQr-V_QlcpzKh-126">
          <mxGeometry relative="1" as="geometry" />
        </mxCell>
        <mxCell id="HIaw6c_OQr-V_QlcpzKh-158" value="&lt;font size=&quot;3&quot;&gt;&lt;b&gt;0&lt;/b&gt;&lt;/font&gt;" style="strokeWidth=2;html=1;shape=mxgraph.flowchart.start_2;whiteSpace=wrap;" vertex="1" parent="HIaw6c_OQr-V_QlcpzKh-241">
          <mxGeometry x="80" width="40" height="40" as="geometry" />
        </mxCell>
        <mxCell id="HIaw6c_OQr-V_QlcpzKh-163" value="&lt;font size=&quot;3&quot;&gt;&lt;b&gt;0&lt;/b&gt;&lt;/font&gt;" style="strokeWidth=2;html=1;shape=mxgraph.flowchart.start_2;whiteSpace=wrap;" vertex="1" parent="HIaw6c_OQr-V_QlcpzKh-241">
          <mxGeometry x="80" y="640" width="40" height="40" as="geometry" />
        </mxCell>
        <mxCell id="HIaw6c_OQr-V_QlcpzKh-164" style="edgeStyle=orthogonalEdgeStyle;rounded=0;orthogonalLoop=1;jettySize=auto;html=1;exitX=0.5;exitY=1;exitDx=0;exitDy=0;entryX=0.5;entryY=0;entryDx=0;entryDy=0;entryPerimeter=0;" edge="1" parent="HIaw6c_OQr-V_QlcpzKh-241" source="HIaw6c_OQr-V_QlcpzKh-131" target="HIaw6c_OQr-V_QlcpzKh-163">
          <mxGeometry relative="1" as="geometry" />
        </mxCell>
        <mxCell id="HIaw6c_OQr-V_QlcpzKh-179" value="&lt;font size=&quot;3&quot;&gt;&lt;b&gt;1&lt;/b&gt;&lt;/font&gt;" style="strokeWidth=2;html=1;shape=mxgraph.flowchart.start_2;whiteSpace=wrap;" vertex="1" parent="HIaw6c_OQr-V_QlcpzKh-241">
          <mxGeometry x="260" y="280" width="40" height="40" as="geometry" />
        </mxCell>
        <mxCell id="HIaw6c_OQr-V_QlcpzKh-180" style="edgeStyle=orthogonalEdgeStyle;rounded=0;orthogonalLoop=1;jettySize=auto;html=1;exitX=1;exitY=0.5;exitDx=0;exitDy=0;exitPerimeter=0;entryX=0;entryY=0.5;entryDx=0;entryDy=0;entryPerimeter=0;" edge="1" parent="HIaw6c_OQr-V_QlcpzKh-241" source="HIaw6c_OQr-V_QlcpzKh-128" target="HIaw6c_OQr-V_QlcpzKh-179">
          <mxGeometry relative="1" as="geometry" />
        </mxCell>
        <mxCell id="HIaw6c_OQr-V_QlcpzKh-214" value="&lt;font style=&quot;font-size: 18px&quot;&gt;&lt;b&gt;7&lt;/b&gt;&lt;/font&gt;" style="strokeWidth=2;html=1;shape=mxgraph.flowchart.start_2;whiteSpace=wrap;" vertex="1" parent="HIaw6c_OQr-V_QlcpzKh-241">
          <mxGeometry x="280" y="120" width="40" height="40" as="geometry" />
        </mxCell>
        <mxCell id="HIaw6c_OQr-V_QlcpzKh-215" style="edgeStyle=orthogonalEdgeStyle;rounded=0;orthogonalLoop=1;jettySize=auto;html=1;exitX=1;exitY=0.5;exitDx=0;exitDy=0;exitPerimeter=0;entryX=0;entryY=0.5;entryDx=0;entryDy=0;entryPerimeter=0;" edge="1" parent="HIaw6c_OQr-V_QlcpzKh-241" source="HIaw6c_OQr-V_QlcpzKh-126" target="HIaw6c_OQr-V_QlcpzKh-214">
          <mxGeometry relative="1" as="geometry" />
        </mxCell>
        <mxCell id="HIaw6c_OQr-V_QlcpzKh-242" value="" style="group" vertex="1" connectable="0" parent="1">
          <mxGeometry x="2481" y="40" width="399" height="800" as="geometry" />
        </mxCell>
        <mxCell id="HIaw6c_OQr-V_QlcpzKh-135" value="&lt;b style=&quot;font-size: 18px&quot;&gt;符号栈&lt;br&gt;&lt;/b&gt;&lt;b style=&quot;font-size: 18px&quot;&gt;operatorStack.top&lt;br&gt;优先级&lt;br&gt;&lt;/b&gt;&lt;font size=&quot;3&quot;&gt;&lt;b&gt;大于&lt;br&gt;&lt;/b&gt;&lt;/font&gt;&lt;b style=&quot;font-size: medium&quot;&gt;regex[i] ?&lt;/b&gt;&lt;font size=&quot;3&quot;&gt;&lt;b&gt;&lt;br&gt;&lt;/b&gt;&lt;/font&gt;" style="strokeWidth=2;html=1;shape=mxgraph.flowchart.decision;whiteSpace=wrap;" vertex="1" parent="HIaw6c_OQr-V_QlcpzKh-242">
          <mxGeometry y="80" width="280" height="160" as="geometry" />
        </mxCell>
        <mxCell id="HIaw6c_OQr-V_QlcpzKh-136" value="&lt;b style=&quot;font-size: 18px&quot;&gt;符号栈&lt;br&gt;&lt;/b&gt;&lt;b style=&quot;font-size: 18px&quot;&gt;operatorStack.top&lt;br&gt;&lt;/b&gt;&lt;font size=&quot;3&quot;&gt;&lt;b&gt;为 &#39;*&#39; ?&lt;br&gt;&lt;/b&gt;&lt;/font&gt;" style="strokeWidth=2;html=1;shape=mxgraph.flowchart.decision;whiteSpace=wrap;" vertex="1" parent="HIaw6c_OQr-V_QlcpzKh-242">
          <mxGeometry x="40" y="280" width="200" height="120" as="geometry" />
        </mxCell>
        <mxCell id="HIaw6c_OQr-V_QlcpzKh-167" style="edgeStyle=orthogonalEdgeStyle;rounded=0;orthogonalLoop=1;jettySize=auto;html=1;exitX=0.5;exitY=1;exitDx=0;exitDy=0;exitPerimeter=0;entryX=0.5;entryY=0;entryDx=0;entryDy=0;entryPerimeter=0;" edge="1" parent="HIaw6c_OQr-V_QlcpzKh-242" source="HIaw6c_OQr-V_QlcpzKh-135" target="HIaw6c_OQr-V_QlcpzKh-136">
          <mxGeometry relative="1" as="geometry" />
        </mxCell>
        <mxCell id="HIaw6c_OQr-V_QlcpzKh-137" value="&lt;b style=&quot;font-size: 18px&quot;&gt;符号栈&lt;br&gt;&lt;/b&gt;&lt;b style=&quot;font-size: 18px&quot;&gt;operatorStack.top&lt;br&gt;&lt;/b&gt;&lt;font size=&quot;3&quot;&gt;&lt;b&gt;为 &#39;&amp;amp;&#39; ?&lt;br&gt;&lt;/b&gt;&lt;/font&gt;" style="strokeWidth=2;html=1;shape=mxgraph.flowchart.decision;whiteSpace=wrap;" vertex="1" parent="HIaw6c_OQr-V_QlcpzKh-242">
          <mxGeometry x="40" y="440" width="200" height="120" as="geometry" />
        </mxCell>
        <mxCell id="HIaw6c_OQr-V_QlcpzKh-168" style="edgeStyle=orthogonalEdgeStyle;rounded=0;orthogonalLoop=1;jettySize=auto;html=1;exitX=0.5;exitY=1;exitDx=0;exitDy=0;exitPerimeter=0;entryX=0.5;entryY=0;entryDx=0;entryDy=0;entryPerimeter=0;" edge="1" parent="HIaw6c_OQr-V_QlcpzKh-242" source="HIaw6c_OQr-V_QlcpzKh-136" target="HIaw6c_OQr-V_QlcpzKh-137">
          <mxGeometry relative="1" as="geometry" />
        </mxCell>
        <mxCell id="HIaw6c_OQr-V_QlcpzKh-182" style="edgeStyle=orthogonalEdgeStyle;rounded=0;orthogonalLoop=1;jettySize=auto;html=1;exitX=0.5;exitY=1;exitDx=0;exitDy=0;exitPerimeter=0;entryX=0.5;entryY=0;entryDx=0;entryDy=0;entryPerimeter=0;" edge="1" parent="HIaw6c_OQr-V_QlcpzKh-242" source="HIaw6c_OQr-V_QlcpzKh-138">
          <mxGeometry relative="1" as="geometry">
            <mxPoint x="140" y="760" as="targetPoint" />
          </mxGeometry>
        </mxCell>
        <mxCell id="HIaw6c_OQr-V_QlcpzKh-138" value="&lt;b style=&quot;font-size: 18px&quot;&gt;符号栈&lt;br&gt;&lt;/b&gt;&lt;b style=&quot;font-size: 18px&quot;&gt;operatorStack.top&lt;br&gt;&lt;/b&gt;&lt;font size=&quot;3&quot;&gt;&lt;b&gt;为 &#39;|&#39; ?&lt;br&gt;&lt;/b&gt;&lt;/font&gt;" style="strokeWidth=2;html=1;shape=mxgraph.flowchart.decision;whiteSpace=wrap;" vertex="1" parent="HIaw6c_OQr-V_QlcpzKh-242">
          <mxGeometry x="40" y="600" width="200" height="120" as="geometry" />
        </mxCell>
        <mxCell id="HIaw6c_OQr-V_QlcpzKh-169" style="edgeStyle=orthogonalEdgeStyle;rounded=0;orthogonalLoop=1;jettySize=auto;html=1;exitX=0.5;exitY=1;exitDx=0;exitDy=0;exitPerimeter=0;entryX=0.5;entryY=0;entryDx=0;entryDy=0;entryPerimeter=0;" edge="1" parent="HIaw6c_OQr-V_QlcpzKh-242" source="HIaw6c_OQr-V_QlcpzKh-137" target="HIaw6c_OQr-V_QlcpzKh-138">
          <mxGeometry relative="1" as="geometry" />
        </mxCell>
        <mxCell id="HIaw6c_OQr-V_QlcpzKh-140" value="&lt;font size=&quot;3&quot;&gt;&lt;b&gt;2&lt;/b&gt;&lt;/font&gt;" style="strokeWidth=2;html=1;shape=mxgraph.flowchart.start_2;whiteSpace=wrap;" vertex="1" parent="HIaw6c_OQr-V_QlcpzKh-242">
          <mxGeometry x="319" y="320" width="40" height="40" as="geometry" />
        </mxCell>
        <mxCell id="HIaw6c_OQr-V_QlcpzKh-170" style="edgeStyle=orthogonalEdgeStyle;rounded=0;orthogonalLoop=1;jettySize=auto;html=1;exitX=1;exitY=0.5;exitDx=0;exitDy=0;exitPerimeter=0;entryX=0;entryY=0.5;entryDx=0;entryDy=0;entryPerimeter=0;" edge="1" parent="HIaw6c_OQr-V_QlcpzKh-242" source="HIaw6c_OQr-V_QlcpzKh-136" target="HIaw6c_OQr-V_QlcpzKh-140">
          <mxGeometry relative="1" as="geometry" />
        </mxCell>
        <mxCell id="HIaw6c_OQr-V_QlcpzKh-141" value="&lt;font size=&quot;3&quot;&gt;&lt;b&gt;3&lt;/b&gt;&lt;/font&gt;" style="strokeWidth=2;html=1;shape=mxgraph.flowchart.start_2;whiteSpace=wrap;" vertex="1" parent="HIaw6c_OQr-V_QlcpzKh-242">
          <mxGeometry x="319" y="480" width="40" height="40" as="geometry" />
        </mxCell>
        <mxCell id="HIaw6c_OQr-V_QlcpzKh-171" style="edgeStyle=orthogonalEdgeStyle;rounded=0;orthogonalLoop=1;jettySize=auto;html=1;exitX=1;exitY=0.5;exitDx=0;exitDy=0;exitPerimeter=0;entryX=0;entryY=0.5;entryDx=0;entryDy=0;entryPerimeter=0;" edge="1" parent="HIaw6c_OQr-V_QlcpzKh-242" source="HIaw6c_OQr-V_QlcpzKh-137" target="HIaw6c_OQr-V_QlcpzKh-141">
          <mxGeometry relative="1" as="geometry" />
        </mxCell>
        <mxCell id="HIaw6c_OQr-V_QlcpzKh-142" value="&lt;font size=&quot;3&quot;&gt;&lt;b&gt;4&lt;/b&gt;&lt;/font&gt;" style="strokeWidth=2;html=1;shape=mxgraph.flowchart.start_2;whiteSpace=wrap;" vertex="1" parent="HIaw6c_OQr-V_QlcpzKh-242">
          <mxGeometry x="319" y="640" width="40" height="40" as="geometry" />
        </mxCell>
        <mxCell id="HIaw6c_OQr-V_QlcpzKh-172" style="edgeStyle=orthogonalEdgeStyle;rounded=0;orthogonalLoop=1;jettySize=auto;html=1;exitX=1;exitY=0.5;exitDx=0;exitDy=0;exitPerimeter=0;entryX=0;entryY=0.5;entryDx=0;entryDy=0;entryPerimeter=0;" edge="1" parent="HIaw6c_OQr-V_QlcpzKh-242" source="HIaw6c_OQr-V_QlcpzKh-138" target="HIaw6c_OQr-V_QlcpzKh-142">
          <mxGeometry relative="1" as="geometry" />
        </mxCell>
        <mxCell id="HIaw6c_OQr-V_QlcpzKh-166" style="edgeStyle=orthogonalEdgeStyle;rounded=0;orthogonalLoop=1;jettySize=auto;html=1;exitX=0.5;exitY=1;exitDx=0;exitDy=0;exitPerimeter=0;entryX=0.5;entryY=0;entryDx=0;entryDy=0;entryPerimeter=0;" edge="1" parent="HIaw6c_OQr-V_QlcpzKh-242" source="HIaw6c_OQr-V_QlcpzKh-165" target="HIaw6c_OQr-V_QlcpzKh-135">
          <mxGeometry relative="1" as="geometry" />
        </mxCell>
        <mxCell id="HIaw6c_OQr-V_QlcpzKh-165" value="&lt;font size=&quot;3&quot;&gt;&lt;b&gt;1&lt;/b&gt;&lt;/font&gt;" style="strokeWidth=2;html=1;shape=mxgraph.flowchart.start_2;whiteSpace=wrap;" vertex="1" parent="HIaw6c_OQr-V_QlcpzKh-242">
          <mxGeometry x="120" width="40" height="40" as="geometry" />
        </mxCell>
        <mxCell id="HIaw6c_OQr-V_QlcpzKh-188" value="&lt;font size=&quot;3&quot;&gt;&lt;b&gt;5&lt;/b&gt;&lt;/font&gt;" style="strokeWidth=2;html=1;shape=mxgraph.flowchart.start_2;whiteSpace=wrap;" vertex="1" parent="HIaw6c_OQr-V_QlcpzKh-242">
          <mxGeometry x="359" y="140" width="40" height="40" as="geometry" />
        </mxCell>
        <mxCell id="HIaw6c_OQr-V_QlcpzKh-189" style="edgeStyle=orthogonalEdgeStyle;rounded=0;orthogonalLoop=1;jettySize=auto;html=1;exitX=1;exitY=0.5;exitDx=0;exitDy=0;exitPerimeter=0;entryX=0;entryY=0.5;entryDx=0;entryDy=0;entryPerimeter=0;" edge="1" parent="HIaw6c_OQr-V_QlcpzKh-242" source="HIaw6c_OQr-V_QlcpzKh-135" target="HIaw6c_OQr-V_QlcpzKh-188">
          <mxGeometry relative="1" as="geometry" />
        </mxCell>
        <mxCell id="HIaw6c_OQr-V_QlcpzKh-209" value="&lt;font style=&quot;font-size: 18px&quot;&gt;&lt;b&gt;0&lt;/b&gt;&lt;/font&gt;" style="strokeWidth=2;html=1;shape=mxgraph.flowchart.start_2;whiteSpace=wrap;" vertex="1" parent="HIaw6c_OQr-V_QlcpzKh-242">
          <mxGeometry x="120" y="760" width="40" height="40" as="geometry" />
        </mxCell>
        <mxCell id="HIaw6c_OQr-V_QlcpzKh-243" value="" style="group" vertex="1" connectable="0" parent="1">
          <mxGeometry x="2030" y="1020" width="400" height="560" as="geometry" />
        </mxCell>
        <mxCell id="HIaw6c_OQr-V_QlcpzKh-183" value="&lt;b style=&quot;font-size: 18px&quot;&gt;符号栈&lt;br&gt;&lt;/b&gt;&lt;b style=&quot;font-size: 18px&quot;&gt;operatorStack.top&lt;br&gt;优先级&lt;br&gt;&lt;/b&gt;&lt;font size=&quot;3&quot;&gt;&lt;b&gt;等于&lt;br&gt;&lt;/b&gt;&lt;/font&gt;&lt;b style=&quot;font-size: medium&quot;&gt;regex[i] ?&lt;/b&gt;&lt;font size=&quot;3&quot;&gt;&lt;b&gt;&lt;br&gt;&lt;/b&gt;&lt;/font&gt;" style="strokeWidth=2;html=1;shape=mxgraph.flowchart.decision;whiteSpace=wrap;" vertex="1" parent="HIaw6c_OQr-V_QlcpzKh-243">
          <mxGeometry y="80" width="280" height="160" as="geometry" />
        </mxCell>
        <mxCell id="HIaw6c_OQr-V_QlcpzKh-190" style="edgeStyle=orthogonalEdgeStyle;rounded=0;orthogonalLoop=1;jettySize=auto;html=1;exitX=0.5;exitY=1;exitDx=0;exitDy=0;exitPerimeter=0;entryX=0.5;entryY=0;entryDx=0;entryDy=0;entryPerimeter=0;" edge="1" parent="HIaw6c_OQr-V_QlcpzKh-243" source="HIaw6c_OQr-V_QlcpzKh-185" target="HIaw6c_OQr-V_QlcpzKh-183">
          <mxGeometry relative="1" as="geometry" />
        </mxCell>
        <mxCell id="HIaw6c_OQr-V_QlcpzKh-185" value="&lt;font size=&quot;3&quot;&gt;&lt;b&gt;5&lt;/b&gt;&lt;/font&gt;" style="strokeWidth=2;html=1;shape=mxgraph.flowchart.start_2;whiteSpace=wrap;" vertex="1" parent="HIaw6c_OQr-V_QlcpzKh-243">
          <mxGeometry x="120" width="40" height="40" as="geometry" />
        </mxCell>
        <mxCell id="HIaw6c_OQr-V_QlcpzKh-186" value="&lt;b style=&quot;font-size: 18px&quot;&gt;符号栈弹栈&lt;br&gt;operatorStack&lt;br&gt;.pop&lt;/b&gt;" style="rounded=0;whiteSpace=wrap;html=1;" vertex="1" parent="HIaw6c_OQr-V_QlcpzKh-243">
          <mxGeometry x="60" y="280" width="160" height="80" as="geometry" />
        </mxCell>
        <mxCell id="HIaw6c_OQr-V_QlcpzKh-191" style="edgeStyle=orthogonalEdgeStyle;rounded=0;orthogonalLoop=1;jettySize=auto;html=1;exitX=0.5;exitY=1;exitDx=0;exitDy=0;exitPerimeter=0;entryX=0.5;entryY=0;entryDx=0;entryDy=0;" edge="1" parent="HIaw6c_OQr-V_QlcpzKh-243" source="HIaw6c_OQr-V_QlcpzKh-183" target="HIaw6c_OQr-V_QlcpzKh-186">
          <mxGeometry relative="1" as="geometry" />
        </mxCell>
        <mxCell id="HIaw6c_OQr-V_QlcpzKh-187" value="&lt;span style=&quot;font-size: 18px&quot;&gt;&lt;b&gt;i++&lt;/b&gt;&lt;/span&gt;" style="rounded=0;whiteSpace=wrap;html=1;" vertex="1" parent="HIaw6c_OQr-V_QlcpzKh-243">
          <mxGeometry x="60" y="400" width="160" height="80" as="geometry" />
        </mxCell>
        <mxCell id="HIaw6c_OQr-V_QlcpzKh-192" style="edgeStyle=orthogonalEdgeStyle;rounded=0;orthogonalLoop=1;jettySize=auto;html=1;exitX=0.5;exitY=1;exitDx=0;exitDy=0;entryX=0.5;entryY=0;entryDx=0;entryDy=0;" edge="1" parent="HIaw6c_OQr-V_QlcpzKh-243" source="HIaw6c_OQr-V_QlcpzKh-186" target="HIaw6c_OQr-V_QlcpzKh-187">
          <mxGeometry relative="1" as="geometry" />
        </mxCell>
        <mxCell id="HIaw6c_OQr-V_QlcpzKh-193" value="&lt;font size=&quot;3&quot;&gt;&lt;b&gt;6&lt;/b&gt;&lt;/font&gt;" style="strokeWidth=2;html=1;shape=mxgraph.flowchart.start_2;whiteSpace=wrap;" vertex="1" parent="HIaw6c_OQr-V_QlcpzKh-243">
          <mxGeometry x="360" y="140" width="40" height="40" as="geometry" />
        </mxCell>
        <mxCell id="HIaw6c_OQr-V_QlcpzKh-194" style="edgeStyle=orthogonalEdgeStyle;rounded=0;orthogonalLoop=1;jettySize=auto;html=1;exitX=1;exitY=0.5;exitDx=0;exitDy=0;exitPerimeter=0;entryX=0;entryY=0.5;entryDx=0;entryDy=0;entryPerimeter=0;" edge="1" parent="HIaw6c_OQr-V_QlcpzKh-243" source="HIaw6c_OQr-V_QlcpzKh-183" target="HIaw6c_OQr-V_QlcpzKh-193">
          <mxGeometry relative="1" as="geometry" />
        </mxCell>
        <mxCell id="HIaw6c_OQr-V_QlcpzKh-205" value="&lt;font style=&quot;font-size: 18px&quot;&gt;&lt;b&gt;0&lt;/b&gt;&lt;/font&gt;" style="strokeWidth=2;html=1;shape=mxgraph.flowchart.start_2;whiteSpace=wrap;" vertex="1" parent="HIaw6c_OQr-V_QlcpzKh-243">
          <mxGeometry x="120" y="520" width="40" height="40" as="geometry" />
        </mxCell>
        <mxCell id="HIaw6c_OQr-V_QlcpzKh-206" style="edgeStyle=orthogonalEdgeStyle;rounded=0;orthogonalLoop=1;jettySize=auto;html=1;exitX=0.5;exitY=1;exitDx=0;exitDy=0;entryX=0.5;entryY=0;entryDx=0;entryDy=0;entryPerimeter=0;" edge="1" parent="HIaw6c_OQr-V_QlcpzKh-243" source="HIaw6c_OQr-V_QlcpzKh-187" target="HIaw6c_OQr-V_QlcpzKh-205">
          <mxGeometry relative="1" as="geometry" />
        </mxCell>
        <mxCell id="HIaw6c_OQr-V_QlcpzKh-244" value="" style="group" vertex="1" connectable="0" parent="1">
          <mxGeometry x="2600" y="1010" width="400" height="560" as="geometry" />
        </mxCell>
        <mxCell id="HIaw6c_OQr-V_QlcpzKh-198" value="&lt;b style=&quot;font-size: 18px&quot;&gt;符号栈&lt;br&gt;&lt;/b&gt;&lt;b style=&quot;font-size: 18px&quot;&gt;operatorStack.top&lt;br&gt;优先级&lt;br&gt;&lt;/b&gt;&lt;font size=&quot;3&quot;&gt;&lt;b&gt;小于&lt;br&gt;&lt;/b&gt;&lt;/font&gt;&lt;b style=&quot;font-size: medium&quot;&gt;regex[i] ?&lt;/b&gt;&lt;font size=&quot;3&quot;&gt;&lt;b&gt;&lt;br&gt;&lt;/b&gt;&lt;/font&gt;" style="strokeWidth=2;html=1;shape=mxgraph.flowchart.decision;whiteSpace=wrap;" vertex="1" parent="HIaw6c_OQr-V_QlcpzKh-244">
          <mxGeometry y="80" width="280" height="160" as="geometry" />
        </mxCell>
        <mxCell id="HIaw6c_OQr-V_QlcpzKh-199" style="edgeStyle=orthogonalEdgeStyle;rounded=0;orthogonalLoop=1;jettySize=auto;html=1;exitX=0.5;exitY=1;exitDx=0;exitDy=0;exitPerimeter=0;entryX=0.5;entryY=0;entryDx=0;entryDy=0;entryPerimeter=0;" edge="1" parent="HIaw6c_OQr-V_QlcpzKh-244" source="HIaw6c_OQr-V_QlcpzKh-200" target="HIaw6c_OQr-V_QlcpzKh-198">
          <mxGeometry relative="1" as="geometry" />
        </mxCell>
        <mxCell id="HIaw6c_OQr-V_QlcpzKh-200" value="&lt;font size=&quot;3&quot;&gt;&lt;b&gt;6&lt;/b&gt;&lt;/font&gt;" style="strokeWidth=2;html=1;shape=mxgraph.flowchart.start_2;whiteSpace=wrap;" vertex="1" parent="HIaw6c_OQr-V_QlcpzKh-244">
          <mxGeometry x="120" width="40" height="40" as="geometry" />
        </mxCell>
        <mxCell id="HIaw6c_OQr-V_QlcpzKh-202" value="&lt;b style=&quot;font-size: 18px&quot;&gt;符号栈入栈&lt;br&gt;operatorStack&lt;br&gt;.push(regex[i])&lt;/b&gt;" style="rounded=0;whiteSpace=wrap;html=1;" vertex="1" parent="HIaw6c_OQr-V_QlcpzKh-244">
          <mxGeometry x="60" y="280" width="160" height="80" as="geometry" />
        </mxCell>
        <mxCell id="HIaw6c_OQr-V_QlcpzKh-196" style="edgeStyle=orthogonalEdgeStyle;rounded=0;orthogonalLoop=1;jettySize=auto;html=1;exitX=0.5;exitY=1;exitDx=0;exitDy=0;exitPerimeter=0;entryX=0.5;entryY=0;entryDx=0;entryDy=0;" edge="1" parent="HIaw6c_OQr-V_QlcpzKh-244" source="HIaw6c_OQr-V_QlcpzKh-198" target="HIaw6c_OQr-V_QlcpzKh-202">
          <mxGeometry relative="1" as="geometry" />
        </mxCell>
        <mxCell id="HIaw6c_OQr-V_QlcpzKh-203" value="&lt;span style=&quot;font-size: 18px&quot;&gt;&lt;b&gt;i++&lt;/b&gt;&lt;/span&gt;" style="rounded=0;whiteSpace=wrap;html=1;" vertex="1" parent="HIaw6c_OQr-V_QlcpzKh-244">
          <mxGeometry x="60" y="400" width="160" height="80" as="geometry" />
        </mxCell>
        <mxCell id="HIaw6c_OQr-V_QlcpzKh-201" style="edgeStyle=orthogonalEdgeStyle;rounded=0;orthogonalLoop=1;jettySize=auto;html=1;exitX=0.5;exitY=1;exitDx=0;exitDy=0;entryX=0.5;entryY=0;entryDx=0;entryDy=0;" edge="1" parent="HIaw6c_OQr-V_QlcpzKh-244" source="HIaw6c_OQr-V_QlcpzKh-202" target="HIaw6c_OQr-V_QlcpzKh-203">
          <mxGeometry relative="1" as="geometry" />
        </mxCell>
        <mxCell id="HIaw6c_OQr-V_QlcpzKh-204" value="&lt;font style=&quot;font-size: 18px&quot;&gt;&lt;b&gt;0&lt;/b&gt;&lt;/font&gt;" style="strokeWidth=2;html=1;shape=mxgraph.flowchart.start_2;whiteSpace=wrap;" vertex="1" parent="HIaw6c_OQr-V_QlcpzKh-244">
          <mxGeometry x="360" y="140" width="40" height="40" as="geometry" />
        </mxCell>
        <mxCell id="HIaw6c_OQr-V_QlcpzKh-197" style="edgeStyle=orthogonalEdgeStyle;rounded=0;orthogonalLoop=1;jettySize=auto;html=1;exitX=1;exitY=0.5;exitDx=0;exitDy=0;exitPerimeter=0;entryX=0;entryY=0.5;entryDx=0;entryDy=0;entryPerimeter=0;" edge="1" parent="HIaw6c_OQr-V_QlcpzKh-244" source="HIaw6c_OQr-V_QlcpzKh-198" target="HIaw6c_OQr-V_QlcpzKh-204">
          <mxGeometry relative="1" as="geometry" />
        </mxCell>
        <mxCell id="HIaw6c_OQr-V_QlcpzKh-207" value="&lt;font style=&quot;font-size: 18px&quot;&gt;&lt;b&gt;0&lt;/b&gt;&lt;/font&gt;" style="strokeWidth=2;html=1;shape=mxgraph.flowchart.start_2;whiteSpace=wrap;" vertex="1" parent="HIaw6c_OQr-V_QlcpzKh-244">
          <mxGeometry x="120" y="520" width="40" height="40" as="geometry" />
        </mxCell>
        <mxCell id="HIaw6c_OQr-V_QlcpzKh-208" style="edgeStyle=orthogonalEdgeStyle;rounded=0;orthogonalLoop=1;jettySize=auto;html=1;exitX=0.5;exitY=1;exitDx=0;exitDy=0;entryX=0.5;entryY=0;entryDx=0;entryDy=0;entryPerimeter=0;" edge="1" parent="HIaw6c_OQr-V_QlcpzKh-244" source="HIaw6c_OQr-V_QlcpzKh-203" target="HIaw6c_OQr-V_QlcpzKh-207">
          <mxGeometry relative="1" as="geometry" />
        </mxCell>
        <mxCell id="HIaw6c_OQr-V_QlcpzKh-245" value="" style="group" vertex="1" connectable="0" parent="1">
          <mxGeometry x="1830" y="1700" width="160" height="560" as="geometry" />
        </mxCell>
        <mxCell id="HIaw6c_OQr-V_QlcpzKh-143" value="&lt;font size=&quot;3&quot;&gt;&lt;b&gt;2&lt;/b&gt;&lt;/font&gt;" style="strokeWidth=2;html=1;shape=mxgraph.flowchart.start_2;whiteSpace=wrap;" vertex="1" parent="HIaw6c_OQr-V_QlcpzKh-245">
          <mxGeometry x="60" width="40" height="40" as="geometry" />
        </mxCell>
        <mxCell id="HIaw6c_OQr-V_QlcpzKh-146" value="&lt;span style=&quot;font-size: 18px&quot;&gt;&lt;b&gt;操作数&lt;br&gt;为&lt;br&gt;&lt;/b&gt;&lt;/span&gt;&lt;b style=&quot;font-size: 18px&quot;&gt;operandStack.pop&lt;/b&gt;&lt;span style=&quot;font-size: 18px&quot;&gt;&lt;b&gt;&lt;br&gt;&lt;/b&gt;&lt;/span&gt;" style="rounded=0;whiteSpace=wrap;html=1;" vertex="1" parent="HIaw6c_OQr-V_QlcpzKh-245">
          <mxGeometry y="80" width="160" height="80" as="geometry" />
        </mxCell>
        <mxCell id="HIaw6c_OQr-V_QlcpzKh-173" style="edgeStyle=orthogonalEdgeStyle;rounded=0;orthogonalLoop=1;jettySize=auto;html=1;exitX=0.5;exitY=1;exitDx=0;exitDy=0;exitPerimeter=0;entryX=0.5;entryY=0;entryDx=0;entryDy=0;" edge="1" parent="HIaw6c_OQr-V_QlcpzKh-245" source="HIaw6c_OQr-V_QlcpzKh-143" target="HIaw6c_OQr-V_QlcpzKh-146">
          <mxGeometry relative="1" as="geometry" />
        </mxCell>
        <mxCell id="HIaw6c_OQr-V_QlcpzKh-148" value="&lt;font style=&quot;font-size: 18px&quot;&gt;&lt;b&gt;根据操作数&lt;br&gt;执行闭包操作&lt;br&gt;构造NFA片段&lt;br&gt;Graph&lt;br&gt;&lt;/b&gt;&lt;/font&gt;" style="shape=process;whiteSpace=wrap;html=1;backgroundOutline=1;" vertex="1" parent="HIaw6c_OQr-V_QlcpzKh-245">
          <mxGeometry y="200" width="160" height="120" as="geometry" />
        </mxCell>
        <mxCell id="HIaw6c_OQr-V_QlcpzKh-212" style="edgeStyle=orthogonalEdgeStyle;rounded=0;orthogonalLoop=1;jettySize=auto;html=1;exitX=0.5;exitY=1;exitDx=0;exitDy=0;entryX=0.5;entryY=0;entryDx=0;entryDy=0;" edge="1" parent="HIaw6c_OQr-V_QlcpzKh-245" source="HIaw6c_OQr-V_QlcpzKh-146" target="HIaw6c_OQr-V_QlcpzKh-148">
          <mxGeometry relative="1" as="geometry" />
        </mxCell>
        <mxCell id="HIaw6c_OQr-V_QlcpzKh-149" value="&lt;span style=&quot;font-size: 18px&quot;&gt;&lt;b&gt;新构造的NFA片段入操作数栈&lt;br&gt;&lt;/b&gt;&lt;/span&gt;&lt;b style=&quot;font-size: 18px&quot;&gt;operandStack&lt;br&gt;&lt;/b&gt;&lt;span style=&quot;font-size: 18px&quot;&gt;&lt;b&gt;.push(Graph)&lt;br&gt;&lt;/b&gt;&lt;/span&gt;" style="rounded=0;whiteSpace=wrap;html=1;" vertex="1" parent="HIaw6c_OQr-V_QlcpzKh-245">
          <mxGeometry y="360" width="160" height="120" as="geometry" />
        </mxCell>
        <mxCell id="HIaw6c_OQr-V_QlcpzKh-213" style="edgeStyle=orthogonalEdgeStyle;rounded=0;orthogonalLoop=1;jettySize=auto;html=1;exitX=0.5;exitY=1;exitDx=0;exitDy=0;entryX=0.5;entryY=0;entryDx=0;entryDy=0;" edge="1" parent="HIaw6c_OQr-V_QlcpzKh-245" source="HIaw6c_OQr-V_QlcpzKh-148" target="HIaw6c_OQr-V_QlcpzKh-149">
          <mxGeometry relative="1" as="geometry" />
        </mxCell>
        <mxCell id="HIaw6c_OQr-V_QlcpzKh-176" value="&lt;font size=&quot;3&quot;&gt;&lt;b&gt;0&lt;/b&gt;&lt;/font&gt;" style="strokeWidth=2;html=1;shape=mxgraph.flowchart.start_2;whiteSpace=wrap;" vertex="1" parent="HIaw6c_OQr-V_QlcpzKh-245">
          <mxGeometry x="60" y="520" width="40" height="40" as="geometry" />
        </mxCell>
        <mxCell id="HIaw6c_OQr-V_QlcpzKh-177" style="edgeStyle=orthogonalEdgeStyle;rounded=0;orthogonalLoop=1;jettySize=auto;html=1;exitX=0.5;exitY=1;exitDx=0;exitDy=0;entryX=0.5;entryY=0;entryDx=0;entryDy=0;entryPerimeter=0;" edge="1" parent="HIaw6c_OQr-V_QlcpzKh-245" source="HIaw6c_OQr-V_QlcpzKh-149" target="HIaw6c_OQr-V_QlcpzKh-176">
          <mxGeometry relative="1" as="geometry" />
        </mxCell>
        <mxCell id="HIaw6c_OQr-V_QlcpzKh-246" value="" style="group" vertex="1" connectable="0" parent="1">
          <mxGeometry x="2090" y="1700" width="200" height="600" as="geometry" />
        </mxCell>
        <mxCell id="HIaw6c_OQr-V_QlcpzKh-144" value="&lt;font size=&quot;3&quot;&gt;&lt;b&gt;3&lt;/b&gt;&lt;/font&gt;" style="strokeWidth=2;html=1;shape=mxgraph.flowchart.start_2;whiteSpace=wrap;" vertex="1" parent="HIaw6c_OQr-V_QlcpzKh-246">
          <mxGeometry x="80" width="40" height="40" as="geometry" />
        </mxCell>
        <mxCell id="HIaw6c_OQr-V_QlcpzKh-216" style="edgeStyle=orthogonalEdgeStyle;rounded=0;orthogonalLoop=1;jettySize=auto;html=1;exitX=0.5;exitY=1;exitDx=0;exitDy=0;exitPerimeter=0;entryX=0.5;entryY=0;entryDx=0;entryDy=0;" edge="1" parent="HIaw6c_OQr-V_QlcpzKh-246" target="HIaw6c_OQr-V_QlcpzKh-219">
          <mxGeometry relative="1" as="geometry">
            <mxPoint x="100" y="40" as="sourcePoint" />
          </mxGeometry>
        </mxCell>
        <mxCell id="HIaw6c_OQr-V_QlcpzKh-219" value="&lt;span style=&quot;font-size: 18px&quot;&gt;&lt;b&gt;操作数1为&lt;br&gt;&lt;/b&gt;&lt;/span&gt;&lt;b style=&quot;font-size: 18px&quot;&gt;operandStack.pop()&lt;br&gt;&lt;/b&gt;&lt;span style=&quot;font-size: 18px&quot;&gt;&lt;b&gt;操作数2为&lt;br&gt;&lt;/b&gt;&lt;/span&gt;&lt;b style=&quot;font-size: 18px&quot;&gt;operandStack.pop()&lt;/b&gt;&lt;span style=&quot;font-size: 18px&quot;&gt;&lt;b&gt;&lt;br&gt;&lt;/b&gt;&lt;/span&gt;" style="rounded=0;whiteSpace=wrap;html=1;" vertex="1" parent="HIaw6c_OQr-V_QlcpzKh-246">
          <mxGeometry y="80" width="200" height="120" as="geometry" />
        </mxCell>
        <mxCell id="HIaw6c_OQr-V_QlcpzKh-225" value="" style="edgeStyle=orthogonalEdgeStyle;rounded=0;orthogonalLoop=1;jettySize=auto;html=1;" edge="1" parent="HIaw6c_OQr-V_QlcpzKh-246" source="HIaw6c_OQr-V_QlcpzKh-144" target="HIaw6c_OQr-V_QlcpzKh-219">
          <mxGeometry relative="1" as="geometry" />
        </mxCell>
        <mxCell id="HIaw6c_OQr-V_QlcpzKh-221" value="&lt;font style=&quot;font-size: 18px&quot;&gt;&lt;b&gt;根据操作数&lt;br&gt;执行连接操作&lt;br&gt;构造NFA片段&lt;br&gt;Graph&lt;br&gt;&lt;/b&gt;&lt;/font&gt;" style="shape=process;whiteSpace=wrap;html=1;backgroundOutline=1;" vertex="1" parent="HIaw6c_OQr-V_QlcpzKh-246">
          <mxGeometry x="20" y="240" width="160" height="120" as="geometry" />
        </mxCell>
        <mxCell id="HIaw6c_OQr-V_QlcpzKh-227" style="edgeStyle=orthogonalEdgeStyle;rounded=0;orthogonalLoop=1;jettySize=auto;html=1;exitX=0.5;exitY=1;exitDx=0;exitDy=0;entryX=0.5;entryY=0;entryDx=0;entryDy=0;" edge="1" parent="HIaw6c_OQr-V_QlcpzKh-246" source="HIaw6c_OQr-V_QlcpzKh-219" target="HIaw6c_OQr-V_QlcpzKh-221">
          <mxGeometry relative="1" as="geometry" />
        </mxCell>
        <mxCell id="HIaw6c_OQr-V_QlcpzKh-223" value="&lt;span style=&quot;font-size: 18px&quot;&gt;&lt;b&gt;新构造的NFA片段入操作数栈&lt;br&gt;&lt;/b&gt;&lt;/span&gt;&lt;b style=&quot;font-size: 18px&quot;&gt;operandStack&lt;br&gt;&lt;/b&gt;&lt;span style=&quot;font-size: 18px&quot;&gt;&lt;b&gt;.push(Graph)&lt;br&gt;&lt;/b&gt;&lt;/span&gt;" style="rounded=0;whiteSpace=wrap;html=1;" vertex="1" parent="HIaw6c_OQr-V_QlcpzKh-246">
          <mxGeometry x="20" y="400" width="160" height="120" as="geometry" />
        </mxCell>
        <mxCell id="HIaw6c_OQr-V_QlcpzKh-220" style="edgeStyle=orthogonalEdgeStyle;rounded=0;orthogonalLoop=1;jettySize=auto;html=1;exitX=0.5;exitY=1;exitDx=0;exitDy=0;entryX=0.5;entryY=0;entryDx=0;entryDy=0;" edge="1" parent="HIaw6c_OQr-V_QlcpzKh-246" source="HIaw6c_OQr-V_QlcpzKh-221" target="HIaw6c_OQr-V_QlcpzKh-223">
          <mxGeometry relative="1" as="geometry" />
        </mxCell>
        <mxCell id="HIaw6c_OQr-V_QlcpzKh-224" value="&lt;font size=&quot;3&quot;&gt;&lt;b&gt;0&lt;/b&gt;&lt;/font&gt;" style="strokeWidth=2;html=1;shape=mxgraph.flowchart.start_2;whiteSpace=wrap;" vertex="1" parent="HIaw6c_OQr-V_QlcpzKh-246">
          <mxGeometry x="80" y="560" width="40" height="40" as="geometry" />
        </mxCell>
        <mxCell id="HIaw6c_OQr-V_QlcpzKh-222" style="edgeStyle=orthogonalEdgeStyle;rounded=0;orthogonalLoop=1;jettySize=auto;html=1;exitX=0.5;exitY=1;exitDx=0;exitDy=0;entryX=0.5;entryY=0;entryDx=0;entryDy=0;entryPerimeter=0;" edge="1" parent="HIaw6c_OQr-V_QlcpzKh-246" source="HIaw6c_OQr-V_QlcpzKh-223" target="HIaw6c_OQr-V_QlcpzKh-224">
          <mxGeometry relative="1" as="geometry" />
        </mxCell>
        <mxCell id="HIaw6c_OQr-V_QlcpzKh-247" value="" style="group" vertex="1" connectable="0" parent="1">
          <mxGeometry x="2390" y="1700" width="200" height="600" as="geometry" />
        </mxCell>
        <mxCell id="HIaw6c_OQr-V_QlcpzKh-145" value="&lt;font size=&quot;3&quot;&gt;&lt;b&gt;4&lt;/b&gt;&lt;/font&gt;" style="strokeWidth=2;html=1;shape=mxgraph.flowchart.start_2;whiteSpace=wrap;" vertex="1" parent="HIaw6c_OQr-V_QlcpzKh-247">
          <mxGeometry x="80" width="40" height="40" as="geometry" />
        </mxCell>
        <mxCell id="HIaw6c_OQr-V_QlcpzKh-228" value="" style="edgeStyle=orthogonalEdgeStyle;rounded=0;orthogonalLoop=1;jettySize=auto;html=1;" edge="1" parent="HIaw6c_OQr-V_QlcpzKh-247" target="HIaw6c_OQr-V_QlcpzKh-232">
          <mxGeometry relative="1" as="geometry">
            <mxPoint x="100" y="40" as="sourcePoint" />
          </mxGeometry>
        </mxCell>
        <mxCell id="HIaw6c_OQr-V_QlcpzKh-230" style="edgeStyle=orthogonalEdgeStyle;rounded=0;orthogonalLoop=1;jettySize=auto;html=1;exitX=0.5;exitY=1;exitDx=0;exitDy=0;exitPerimeter=0;entryX=0.5;entryY=0;entryDx=0;entryDy=0;" edge="1" parent="HIaw6c_OQr-V_QlcpzKh-247" target="HIaw6c_OQr-V_QlcpzKh-232">
          <mxGeometry relative="1" as="geometry">
            <mxPoint x="100" y="40" as="sourcePoint" />
          </mxGeometry>
        </mxCell>
        <mxCell id="HIaw6c_OQr-V_QlcpzKh-232" value="&lt;span style=&quot;font-size: 18px&quot;&gt;&lt;b&gt;操作数1为&lt;br&gt;&lt;/b&gt;&lt;/span&gt;&lt;b style=&quot;font-size: 18px&quot;&gt;operandStack.pop()&lt;br&gt;&lt;/b&gt;&lt;span style=&quot;font-size: 18px&quot;&gt;&lt;b&gt;操作数2为&lt;br&gt;&lt;/b&gt;&lt;/span&gt;&lt;b style=&quot;font-size: 18px&quot;&gt;operandStack.pop()&lt;/b&gt;&lt;span style=&quot;font-size: 18px&quot;&gt;&lt;b&gt;&lt;br&gt;&lt;/b&gt;&lt;/span&gt;" style="rounded=0;whiteSpace=wrap;html=1;" vertex="1" parent="HIaw6c_OQr-V_QlcpzKh-247">
          <mxGeometry y="80" width="200" height="120" as="geometry" />
        </mxCell>
        <mxCell id="HIaw6c_OQr-V_QlcpzKh-234" value="&lt;font style=&quot;font-size: 18px&quot;&gt;&lt;b&gt;根据操作数&lt;br&gt;执行或操作&lt;br&gt;构造NFA片段&lt;br&gt;Graph&lt;br&gt;&lt;/b&gt;&lt;/font&gt;" style="shape=process;whiteSpace=wrap;html=1;backgroundOutline=1;" vertex="1" parent="HIaw6c_OQr-V_QlcpzKh-247">
          <mxGeometry x="20" y="240" width="160" height="120" as="geometry" />
        </mxCell>
        <mxCell id="HIaw6c_OQr-V_QlcpzKh-231" style="edgeStyle=orthogonalEdgeStyle;rounded=0;orthogonalLoop=1;jettySize=auto;html=1;exitX=0.5;exitY=1;exitDx=0;exitDy=0;entryX=0.5;entryY=0;entryDx=0;entryDy=0;" edge="1" parent="HIaw6c_OQr-V_QlcpzKh-247" source="HIaw6c_OQr-V_QlcpzKh-232" target="HIaw6c_OQr-V_QlcpzKh-234">
          <mxGeometry relative="1" as="geometry" />
        </mxCell>
        <mxCell id="HIaw6c_OQr-V_QlcpzKh-236" value="&lt;span style=&quot;font-size: 18px&quot;&gt;&lt;b&gt;新构造的NFA片段入操作数栈&lt;br&gt;&lt;/b&gt;&lt;/span&gt;&lt;b style=&quot;font-size: 18px&quot;&gt;operandStack&lt;br&gt;&lt;/b&gt;&lt;span style=&quot;font-size: 18px&quot;&gt;&lt;b&gt;.push(Graph)&lt;br&gt;&lt;/b&gt;&lt;/span&gt;" style="rounded=0;whiteSpace=wrap;html=1;" vertex="1" parent="HIaw6c_OQr-V_QlcpzKh-247">
          <mxGeometry x="20" y="400" width="160" height="120" as="geometry" />
        </mxCell>
        <mxCell id="HIaw6c_OQr-V_QlcpzKh-233" style="edgeStyle=orthogonalEdgeStyle;rounded=0;orthogonalLoop=1;jettySize=auto;html=1;exitX=0.5;exitY=1;exitDx=0;exitDy=0;entryX=0.5;entryY=0;entryDx=0;entryDy=0;" edge="1" parent="HIaw6c_OQr-V_QlcpzKh-247" source="HIaw6c_OQr-V_QlcpzKh-234" target="HIaw6c_OQr-V_QlcpzKh-236">
          <mxGeometry relative="1" as="geometry" />
        </mxCell>
        <mxCell id="HIaw6c_OQr-V_QlcpzKh-237" value="&lt;font size=&quot;3&quot;&gt;&lt;b&gt;0&lt;/b&gt;&lt;/font&gt;" style="strokeWidth=2;html=1;shape=mxgraph.flowchart.start_2;whiteSpace=wrap;" vertex="1" parent="HIaw6c_OQr-V_QlcpzKh-247">
          <mxGeometry x="80" y="560" width="40" height="40" as="geometry" />
        </mxCell>
        <mxCell id="HIaw6c_OQr-V_QlcpzKh-235" style="edgeStyle=orthogonalEdgeStyle;rounded=0;orthogonalLoop=1;jettySize=auto;html=1;exitX=0.5;exitY=1;exitDx=0;exitDy=0;entryX=0.5;entryY=0;entryDx=0;entryDy=0;entryPerimeter=0;" edge="1" parent="HIaw6c_OQr-V_QlcpzKh-247" source="HIaw6c_OQr-V_QlcpzKh-236" target="HIaw6c_OQr-V_QlcpzKh-237">
          <mxGeometry relative="1" as="geometry" />
        </mxCell>
        <mxCell id="HIaw6c_OQr-V_QlcpzKh-256" value="" style="group" vertex="1" connectable="0" parent="1">
          <mxGeometry x="2670.5" y="1700" width="160" height="280" as="geometry" />
        </mxCell>
        <mxCell id="HIaw6c_OQr-V_QlcpzKh-249" value="&lt;span style=&quot;font-size: 18px&quot;&gt;&lt;b&gt;操作数栈出栈&lt;br&gt;&lt;/b&gt;&lt;/span&gt;&lt;b style=&quot;font-size: 18px&quot;&gt;operandStack&lt;br&gt;&lt;/b&gt;&lt;span style=&quot;font-size: 18px&quot;&gt;&lt;b&gt;.pop&lt;br&gt;其结果即为构造完成的NFA&lt;br&gt;&lt;/b&gt;&lt;/span&gt;" style="rounded=0;whiteSpace=wrap;html=1;" vertex="1" parent="HIaw6c_OQr-V_QlcpzKh-256">
          <mxGeometry y="80" width="160" height="120" as="geometry" />
        </mxCell>
        <mxCell id="HIaw6c_OQr-V_QlcpzKh-252" style="edgeStyle=orthogonalEdgeStyle;rounded=0;orthogonalLoop=1;jettySize=auto;html=1;exitX=0.5;exitY=1;exitDx=0;exitDy=0;exitPerimeter=0;entryX=0.5;entryY=0;entryDx=0;entryDy=0;" edge="1" parent="HIaw6c_OQr-V_QlcpzKh-256" source="HIaw6c_OQr-V_QlcpzKh-250" target="HIaw6c_OQr-V_QlcpzKh-249">
          <mxGeometry relative="1" as="geometry" />
        </mxCell>
        <mxCell id="HIaw6c_OQr-V_QlcpzKh-250" value="&lt;b&gt;&lt;font style=&quot;font-size: 18px&quot;&gt;7&lt;/font&gt;&lt;/b&gt;" style="strokeWidth=2;html=1;shape=mxgraph.flowchart.start_2;whiteSpace=wrap;" vertex="1" parent="HIaw6c_OQr-V_QlcpzKh-256">
          <mxGeometry x="60" width="40" height="40" as="geometry" />
        </mxCell>
        <mxCell id="HIaw6c_OQr-V_QlcpzKh-251" value="&lt;b&gt;&lt;font style=&quot;font-size: 18px&quot;&gt;8&lt;/font&gt;&lt;/b&gt;" style="strokeWidth=2;html=1;shape=mxgraph.flowchart.start_2;whiteSpace=wrap;" vertex="1" parent="HIaw6c_OQr-V_QlcpzKh-256">
          <mxGeometry x="60" y="240" width="40" height="40" as="geometry" />
        </mxCell>
        <mxCell id="HIaw6c_OQr-V_QlcpzKh-253" style="edgeStyle=orthogonalEdgeStyle;rounded=0;orthogonalLoop=1;jettySize=auto;html=1;exitX=0.5;exitY=1;exitDx=0;exitDy=0;entryX=0.5;entryY=0;entryDx=0;entryDy=0;entryPerimeter=0;" edge="1" parent="HIaw6c_OQr-V_QlcpzKh-256" source="HIaw6c_OQr-V_QlcpzKh-249" target="HIaw6c_OQr-V_QlcpzKh-251">
          <mxGeometry relative="1" as="geometry" />
        </mxCell>
        <mxCell id="HIaw6c_OQr-V_QlcpzKh-257" value="" style="group" vertex="1" connectable="0" parent="1">
          <mxGeometry x="2950" y="1740" width="160" height="160" as="geometry" />
        </mxCell>
        <mxCell id="HIaw6c_OQr-V_QlcpzKh-120" value="&lt;b style=&quot;font-size: 18px&quot;&gt;正规式转NFA程序结束&lt;/b&gt;" style="rounded=1;whiteSpace=wrap;html=1;fillColor=#d5e8d4;strokeColor=#82b366;" vertex="1" parent="HIaw6c_OQr-V_QlcpzKh-257">
          <mxGeometry y="80" width="160" height="80" as="geometry" />
        </mxCell>
        <mxCell id="HIaw6c_OQr-V_QlcpzKh-255" style="edgeStyle=orthogonalEdgeStyle;rounded=0;orthogonalLoop=1;jettySize=auto;html=1;exitX=0.5;exitY=1;exitDx=0;exitDy=0;exitPerimeter=0;entryX=0.5;entryY=0;entryDx=0;entryDy=0;" edge="1" parent="HIaw6c_OQr-V_QlcpzKh-257" source="HIaw6c_OQr-V_QlcpzKh-254" target="HIaw6c_OQr-V_QlcpzKh-120">
          <mxGeometry relative="1" as="geometry" />
        </mxCell>
        <mxCell id="HIaw6c_OQr-V_QlcpzKh-254" value="&lt;font style=&quot;font-size: 18px&quot;&gt;&lt;b&gt;8&lt;/b&gt;&lt;/font&gt;" style="strokeWidth=2;html=1;shape=mxgraph.flowchart.start_2;whiteSpace=wrap;" vertex="1" parent="HIaw6c_OQr-V_QlcpzKh-257">
          <mxGeometry x="60" width="40" height="40" as="geometry" />
        </mxCell>
        <mxCell id="HIaw6c_OQr-V_QlcpzKh-262" value="" style="group" vertex="1" connectable="0" parent="1">
          <mxGeometry x="1760" y="40" width="280" height="960" as="geometry" />
        </mxCell>
        <mxCell id="HIaw6c_OQr-V_QlcpzKh-115" value="&lt;font style=&quot;font-size: 18px&quot;&gt;&lt;b&gt;输入正规式&lt;br&gt;regex&lt;br&gt;&lt;/b&gt;&lt;/font&gt;" style="shape=parallelogram;html=1;strokeWidth=2;perimeter=parallelogramPerimeter;whiteSpace=wrap;rounded=1;arcSize=12;size=0.23;" vertex="1" parent="HIaw6c_OQr-V_QlcpzKh-262">
          <mxGeometry y="120" width="160" height="80" as="geometry" />
        </mxCell>
        <mxCell id="HIaw6c_OQr-V_QlcpzKh-116" value="&lt;font size=&quot;3&quot;&gt;&lt;b&gt;是否为合法正规式？&lt;br&gt;&lt;/b&gt;&lt;/font&gt;" style="strokeWidth=2;html=1;shape=mxgraph.flowchart.decision;whiteSpace=wrap;" vertex="1" parent="HIaw6c_OQr-V_QlcpzKh-262">
          <mxGeometry y="240" width="160" height="120" as="geometry" />
        </mxCell>
        <mxCell id="HIaw6c_OQr-V_QlcpzKh-151" style="edgeStyle=orthogonalEdgeStyle;rounded=0;orthogonalLoop=1;jettySize=auto;html=1;exitX=0.5;exitY=1;exitDx=0;exitDy=0;entryX=0.5;entryY=0;entryDx=0;entryDy=0;entryPerimeter=0;" edge="1" parent="HIaw6c_OQr-V_QlcpzKh-262" source="HIaw6c_OQr-V_QlcpzKh-115" target="HIaw6c_OQr-V_QlcpzKh-116">
          <mxGeometry as="geometry" />
        </mxCell>
        <mxCell id="HIaw6c_OQr-V_QlcpzKh-150" style="edgeStyle=orthogonalEdgeStyle;rounded=0;orthogonalLoop=1;jettySize=auto;html=1;exitX=0.5;exitY=1;exitDx=0;exitDy=0;entryX=0.5;entryY=0;entryDx=0;entryDy=0;" edge="1" parent="HIaw6c_OQr-V_QlcpzKh-262" source="HIaw6c_OQr-V_QlcpzKh-119" target="HIaw6c_OQr-V_QlcpzKh-115">
          <mxGeometry as="geometry" />
        </mxCell>
        <mxCell id="HIaw6c_OQr-V_QlcpzKh-119" value="&lt;b style=&quot;font-size: 18px&quot;&gt;正规式转NFA程序开始&lt;/b&gt;" style="rounded=1;whiteSpace=wrap;html=1;fillColor=#d5e8d4;strokeColor=#82b366;" vertex="1" parent="HIaw6c_OQr-V_QlcpzKh-262">
          <mxGeometry width="160" height="80" as="geometry" />
        </mxCell>
        <mxCell id="HIaw6c_OQr-V_QlcpzKh-121" value="&lt;font style=&quot;font-size: 18px&quot;&gt;&lt;b&gt;初始化堆栈&lt;br&gt;操作数栈operandStack&lt;br&gt;符号栈&lt;br&gt;operatorStack&lt;br&gt;&lt;/b&gt;&lt;/font&gt;" style="rounded=0;whiteSpace=wrap;html=1;" vertex="1" parent="HIaw6c_OQr-V_QlcpzKh-262">
          <mxGeometry y="400" width="160" height="120" as="geometry" />
        </mxCell>
        <mxCell id="HIaw6c_OQr-V_QlcpzKh-152" style="edgeStyle=orthogonalEdgeStyle;rounded=0;orthogonalLoop=1;jettySize=auto;html=1;exitX=0.5;exitY=1;exitDx=0;exitDy=0;exitPerimeter=0;entryX=0.5;entryY=0;entryDx=0;entryDy=0;" edge="1" parent="HIaw6c_OQr-V_QlcpzKh-262" source="HIaw6c_OQr-V_QlcpzKh-116" target="HIaw6c_OQr-V_QlcpzKh-121">
          <mxGeometry as="geometry" />
        </mxCell>
        <mxCell id="HIaw6c_OQr-V_QlcpzKh-122" value="&lt;b style=&quot;font-size: 18px&quot;&gt;operatorStack&lt;br&gt;.push(&#39;#&#39;)&lt;/b&gt;" style="rounded=0;whiteSpace=wrap;html=1;" vertex="1" parent="HIaw6c_OQr-V_QlcpzKh-262">
          <mxGeometry y="560" width="160" height="80" as="geometry" />
        </mxCell>
        <mxCell id="HIaw6c_OQr-V_QlcpzKh-153" style="edgeStyle=orthogonalEdgeStyle;rounded=0;orthogonalLoop=1;jettySize=auto;html=1;exitX=0.5;exitY=1;exitDx=0;exitDy=0;entryX=0.5;entryY=0;entryDx=0;entryDy=0;" edge="1" parent="HIaw6c_OQr-V_QlcpzKh-262" source="HIaw6c_OQr-V_QlcpzKh-121" target="HIaw6c_OQr-V_QlcpzKh-122">
          <mxGeometry as="geometry" />
        </mxCell>
        <mxCell id="HIaw6c_OQr-V_QlcpzKh-124" value="&lt;span style=&quot;font-size: 18px&quot;&gt;&lt;b&gt;regex += &#39;#&#39;&lt;/b&gt;&lt;/span&gt;" style="rounded=0;whiteSpace=wrap;html=1;" vertex="1" parent="HIaw6c_OQr-V_QlcpzKh-262">
          <mxGeometry y="680" width="160" height="80" as="geometry" />
        </mxCell>
        <mxCell id="HIaw6c_OQr-V_QlcpzKh-154" style="edgeStyle=orthogonalEdgeStyle;rounded=0;orthogonalLoop=1;jettySize=auto;html=1;exitX=0.5;exitY=1;exitDx=0;exitDy=0;entryX=0.5;entryY=0;entryDx=0;entryDy=0;" edge="1" parent="HIaw6c_OQr-V_QlcpzKh-262" source="HIaw6c_OQr-V_QlcpzKh-122" target="HIaw6c_OQr-V_QlcpzKh-124">
          <mxGeometry as="geometry" />
        </mxCell>
        <mxCell id="HIaw6c_OQr-V_QlcpzKh-127" value="&lt;span style=&quot;font-size: 18px&quot;&gt;&lt;b&gt;i = 0&lt;/b&gt;&lt;/span&gt;" style="rounded=0;whiteSpace=wrap;html=1;" vertex="1" parent="HIaw6c_OQr-V_QlcpzKh-262">
          <mxGeometry y="800" width="160" height="80" as="geometry" />
        </mxCell>
        <mxCell id="HIaw6c_OQr-V_QlcpzKh-155" style="edgeStyle=orthogonalEdgeStyle;rounded=0;orthogonalLoop=1;jettySize=auto;html=1;exitX=0.5;exitY=1;exitDx=0;exitDy=0;entryX=0.5;entryY=0;entryDx=0;entryDy=0;" edge="1" parent="HIaw6c_OQr-V_QlcpzKh-262" source="HIaw6c_OQr-V_QlcpzKh-124" target="HIaw6c_OQr-V_QlcpzKh-127">
          <mxGeometry as="geometry" />
        </mxCell>
        <mxCell id="HIaw6c_OQr-V_QlcpzKh-156" value="&lt;font size=&quot;3&quot;&gt;&lt;b&gt;0&lt;/b&gt;&lt;/font&gt;" style="strokeWidth=2;html=1;shape=mxgraph.flowchart.start_2;whiteSpace=wrap;" vertex="1" parent="HIaw6c_OQr-V_QlcpzKh-262">
          <mxGeometry x="60" y="920" width="40" height="40" as="geometry" />
        </mxCell>
        <mxCell id="HIaw6c_OQr-V_QlcpzKh-157" style="edgeStyle=orthogonalEdgeStyle;rounded=0;orthogonalLoop=1;jettySize=auto;html=1;exitX=0.5;exitY=1;exitDx=0;exitDy=0;entryX=0.5;entryY=0;entryDx=0;entryDy=0;entryPerimeter=0;" edge="1" parent="HIaw6c_OQr-V_QlcpzKh-262" source="HIaw6c_OQr-V_QlcpzKh-127" target="HIaw6c_OQr-V_QlcpzKh-156">
          <mxGeometry as="geometry" />
        </mxCell>
        <mxCell id="HIaw6c_OQr-V_QlcpzKh-210" value="&lt;font style=&quot;font-size: 18px&quot;&gt;&lt;b&gt;8&lt;/b&gt;&lt;/font&gt;" style="strokeWidth=2;html=1;shape=mxgraph.flowchart.start_2;whiteSpace=wrap;" vertex="1" parent="HIaw6c_OQr-V_QlcpzKh-262">
          <mxGeometry x="240" y="280" width="40" height="40" as="geometry" />
        </mxCell>
        <mxCell id="HIaw6c_OQr-V_QlcpzKh-211" style="edgeStyle=orthogonalEdgeStyle;rounded=0;orthogonalLoop=1;jettySize=auto;html=1;exitX=1;exitY=0.5;exitDx=0;exitDy=0;exitPerimeter=0;entryX=0;entryY=0.5;entryDx=0;entryDy=0;entryPerimeter=0;" edge="1" parent="HIaw6c_OQr-V_QlcpzKh-262" source="HIaw6c_OQr-V_QlcpzKh-116" target="HIaw6c_OQr-V_QlcpzKh-210">
          <mxGeometry as="geometry" />
        </mxCell>
        <mxCell id="HIaw6c_OQr-V_QlcpzKh-260" value="&lt;font style=&quot;font-size: 18px&quot;&gt;&lt;b&gt;Y&lt;/b&gt;&lt;/font&gt;" style="text;html=1;strokeColor=none;fillColor=none;align=center;verticalAlign=middle;whiteSpace=wrap;rounded=0;" vertex="1" parent="HIaw6c_OQr-V_QlcpzKh-262">
          <mxGeometry x="40" y="370" width="40" height="20" as="geometry" />
        </mxCell>
        <mxCell id="HIaw6c_OQr-V_QlcpzKh-261" value="&lt;font style=&quot;font-size: 18px&quot;&gt;&lt;b&gt;N&lt;/b&gt;&lt;/font&gt;" style="text;html=1;strokeColor=none;fillColor=none;align=center;verticalAlign=middle;whiteSpace=wrap;rounded=0;" vertex="1" parent="HIaw6c_OQr-V_QlcpzKh-262">
          <mxGeometry x="180" y="280" width="40" height="20" as="geometry" />
        </mxCell>
      </root>
    </mxGraphModel>
  </diagram>
</mxfile>
